<mxfile host="app.diagrams.net" modified="2023-09-07T10:14:38.177Z" agent="Mozilla/5.0 (X11; Linux x86_64) AppleWebKit/537.36 (KHTML, like Gecko) Chrome/89.0.4389.114 Safari/537.36" version="21.7.2" etag="rilw1H6rZr5Dtt-VdHsQ" type="github">
  <diagram name="Страница — 1" id="sGeUlYy9vwEeiNY2uGgN">
    <mxGraphModel>
      <root>
        <mxCell id="0" />
        <mxCell id="1" parent="0" />
      </root>
    </mxGraphModel>
  </diagram>
</mxfile>
